# This file uses centimeters as units for non-parametric coordinates.

mtllib Maya_testcube2.mtl
g default
v -0.219044 0.000000 0.191448
v 0.202075 0.000000 0.191448
v -0.219044 0.319928 0.191448
v 0.202075 0.319928 0.191448
v -0.219044 0.319928 -0.202075
v 0.202075 0.319928 -0.202075
v -0.219044 0.000000 -0.202075
v 0.202075 0.000000 -0.202075
vt 0.375000 0.000000
vt 0.625000 0.000000
vt 0.375000 0.250000
vt 0.625000 0.250000
vt 0.375000 0.500000
vt 0.625000 0.500000
vt 0.375000 0.750000
vt 0.625000 0.750000
vt 0.375000 1.000000
vt 0.625000 1.000000
vt 0.875000 0.000000
vt 0.875000 0.250000
vt 0.125000 0.000000
vt 0.125000 0.250000
vn -0.577350 -0.577350 0.577350
vn 0.577350 -0.577350 0.577350
vn 0.577350 0.577350 0.577350
vn -0.577350 0.577350 0.577350
vn 0.577350 0.577350 -0.577350
vn -0.577350 0.577350 -0.577350
vn 0.577350 -0.577350 -0.577350
vn -0.577350 -0.577350 -0.577350
s 1
g pCube1
usemtl initialShadingGroup
f 1/1/1 2/2/2 4/4/3 3/3/4
f 3/3/4 4/4/3 6/6/5 5/5/6
f 5/5/6 6/6/5 8/8/7 7/7/8
f 7/7/8 8/8/7 2/10/2 1/9/1
f 2/2/2 8/11/7 6/12/5 4/4/3
f 7/13/8 1/1/1 3/3/4 5/14/6
