# This file uses centimeters as units for non-parametric coordinates.

mtllib dodecahedron_wNuv.mtl
g default
v 1.214120 0.000000 1.589310
v 0.375185 1.154700 1.589310
v -0.982247 0.713644 1.589310
v -0.982247 -0.713644 1.589310
v 0.375185 -1.154700 1.589310
v 1.964490 0.000000 0.375185
v 0.607062 1.868350 0.375185
v -1.589310 1.154700 0.375185
v -1.589310 -1.154700 0.375185
v 0.607062 -1.868350 0.375185
v 1.589310 1.154700 -0.375185
v -0.607062 1.868350 -0.375185
v -1.964490 0.000000 -0.375185
v -0.607062 -1.868350 -0.375185
v 1.589310 -1.154700 -0.375185
v 0.982247 0.713644 -1.589310
v -0.375185 1.154700 -1.589310
v -1.214120 0.000000 -1.589310
v -0.375185 -1.154700 -1.589310
v 0.982247 -0.713644 -1.589310
vt 0.707683 0.500000
vt 0.573824 0.891826
vt 0.323824 0.732279
vt 0.323824 0.267721
vt 0.573824 0.108174
vt 0.939963 0.500000
vt 1.073824 0.891826
vt 0.823824 1.267721
vt -0.176176 1.267721
vt 0.073824 0.891826
vt -0.060037 0.500000
vt 0.073824 0.108174
vt 0.823824 -0.267721
vt 1.073824 0.108174
vt -0.426176 0.891826
vt -0.292317 0.500000
vt -0.426176 0.108174
vt 1.323824 0.732279
vt 1.573824 0.891826
vt 1.823824 1.267721
vt 2.823824 1.267721
vt 3.073824 0.891826
vt 1.573824 0.108174
vt -0.176176 -0.267721
vt 1.323824 0.267721
vt 1.707683 0.500000
vn 0.607062 0.000000 0.794654
vn 0.187593 0.577349 0.794655
vn -0.491124 0.356822 0.794654
vn -0.491124 -0.356822 0.794654
vn 0.187593 -0.577349 0.794655
vn 0.982247 0.000000 0.187593
vn 0.794655 0.577349 -0.187592
vn 0.303532 0.934172 0.187593
vn -0.303532 0.934172 -0.187593
vn -0.794655 0.577349 0.187592
vn -0.982247 0.000000 -0.187593
vn -0.794655 -0.577349 0.187592
vn -0.303532 -0.934172 -0.187593
vn 0.303532 -0.934172 0.187593
vn 0.794655 -0.577349 -0.187592
vn 0.491124 0.356822 -0.794654
vn 0.491124 -0.356822 -0.794654
vn -0.187592 0.577349 -0.794655
vn -0.607062 0.000000 -0.794654
vn -0.187592 -0.577349 -0.794655
s 1
g Mesh
usemtl initialShadingGroup
f 1/1/1 2/2/2 3/3/3 4/4/4 5/5/5
f 1/1/1 6/6/6 11/7/7 7/8/8 2/2/2
f 2/2/2 7/8/8 12/9/9 8/10/10 3/3/3
f 3/3/3 8/10/10 13/11/11 9/12/12 4/4/4
f 4/4/4 9/12/12 14/24/13 10/13/14 5/5/5
f 5/5/5 10/13/14 15/14/15 6/6/6 1/1/1
f 16/18/16 11/7/7 6/6/6 15/14/15 20/25/17
f 17/19/18 12/20/9 7/21/8 11/22/7 16/18/16
f 18/16/19 13/11/11 8/10/10 12/9/9 17/15/18
f 19/17/20 14/24/13 9/12/12 13/11/11 18/16/19
f 20/25/17 15/14/15 10/13/14 14/24/13 19/23/20
f 20/25/17 19/23/20 18/26/19 17/19/18 16/18/16
